HIERARCHY
ROOT Hips
{
	OFFSET -0.001795 -0.223333 0.028219
	CHANNELS 6 Xposition Yposition Zposition Zrotation Yrotation Xrotation 
	JOINT LeftUpLeg
	{
		OFFSET 0.069520 -0.091406 -0.006815
		CHANNELS 3 Zrotation Yrotation Xrotation
		JOINT LeftLeg
		{
			OFFSET 0.034277 -0.375199 -0.004496
			CHANNELS 3 Zrotation Yrotation Xrotation
			JOINT LeftFoot
			{
				OFFSET -0.013596 -0.397961 -0.043693
				CHANNELS 3 Zrotation Yrotation Xrotation
				JOINT LeftToe
				{
					OFFSET 0.026358 -0.055791 0.119288
					CHANNELS 3 Zrotation Yrotation Xrotation
					End Site
					{
						OFFSET 0.000000 0.000000 0.000000
					}
				}
			}
		}
	}
	JOINT RightUpLeg
	{
		OFFSET -0.067670 -0.090522 -0.004320
		CHANNELS 3 Zrotation Yrotation Xrotation
		JOINT RightLeg
		{
			OFFSET -0.038290 -0.382569 -0.008850
			CHANNELS 3 Zrotation Yrotation Xrotation
			JOINT RightFoot
			{
				OFFSET 0.015774 -0.398415 -0.042312
				CHANNELS 3 Zrotation Yrotation Xrotation
				JOINT RightToe
				{
					OFFSET -0.025372 -0.048144 0.123348
					CHANNELS 3 Zrotation Yrotation Xrotation
					End Site
					{
						OFFSET 0.000000 0.000000 0.000000
					}
				}
			}
		}
	}
	JOINT Spine
	{
		OFFSET -0.002533 0.108963 -0.026696
		CHANNELS 3 Zrotation Yrotation Xrotation
		JOINT Spine1
		{
			OFFSET 0.005487 0.135180 0.001092
			CHANNELS 3 Zrotation Yrotation Xrotation
			JOINT Spine2
			{
				OFFSET 0.001457 0.052922 0.025425
				CHANNELS 3 Zrotation Yrotation Xrotation
				JOINT Neck
				{
					OFFSET -0.002778 0.213870 -0.042857
					CHANNELS 3 Zrotation Yrotation Xrotation
					JOINT Head
					{
						OFFSET 0.005152 0.064970 0.051349
						CHANNELS 3 Zrotation Yrotation Xrotation
						End Site
						{
							OFFSET 0.000000 0.000000 0.000000
						}
					}
				}
				JOINT LeftShoulder
				{
					OFFSET 0.078845 0.121749 -0.034090
					CHANNELS 3 Zrotation Yrotation Xrotation
					JOINT LeftArm
					{
						OFFSET 0.090977 0.030469 -0.008868
						CHANNELS 3 Zrotation Yrotation Xrotation
						JOINT LeftForeArm
						{
							OFFSET 0.259612 -0.012772 -0.027456
							CHANNELS 3 Zrotation Yrotation Xrotation
							JOINT LeftHand
							{
								OFFSET 0.249234 0.008986 -0.001171
								CHANNELS 3 Zrotation Yrotation Xrotation
								End Site
								{
									OFFSET 0.000000 0.000000 0.000000
								}
							}
						}
					}
				}
				JOINT RightShoulder
				{
					OFFSET -0.081759 0.118833 -0.038615
					CHANNELS 3 Zrotation Yrotation Xrotation
					JOINT RightArm
					{
						OFFSET -0.096012 0.032551 -0.009143
						CHANNELS 3 Zrotation Yrotation Xrotation
						JOINT RightForeArm
						{
							OFFSET -0.253742 -0.013329 -0.021401
							CHANNELS 3 Zrotation Yrotation Xrotation
							JOINT RightHand
							{
								OFFSET -0.255298 0.007772 -0.005559
								CHANNELS 3 Zrotation Yrotation Xrotation
								End Site
								{
									OFFSET 0.000000 0.000000 0.000000
								}
							}
						}
					}
				}
			}
		}
	}
}
MOTION
Frames: 13
Frame Time: 0.050000
0.000000 0.949772 0.000000 -2.925415 -0.933779 9.187700 6.047775 -0.397647 -5.140459 1.558627 0.294598 -9.520841 1.569953 7.391009 13.475110 0.000000 0.000000 0.000000 -2.685577 0.760330 -8.149951 -0.868347 -0.101004 -3.975372 0.157110 -4.749695 11.887559 0.000000 0.000000 0.000000 1.581318 0.185095 -4.444034 -0.229266 0.217145 -4.990018 0.518274 -0.813665 4.512810 2.215194 -0.449275 -14.744488 0.000000 0.000000 0.000000 -16.119952 5.147347 -3.860089 -57.433220 -6.614150 -3.559576 -8.396365 -17.868481 2.036336 0.000000 0.000000 0.000000 14.545134 -4.722630 -3.926729 61.494202 7.080013 -2.237205 4.547357 16.456611 1.065685 0.000000 0.000000 0.000000 
0.000108 0.948501 0.001180 -3.221306 -2.688413 9.788638 5.705951 -0.377669 -4.817142 2.616592 0.327796 -10.389262 2.082688 7.989854 13.527141 0.000000 0.000000 0.000000 -2.782306 0.856602 -9.227411 -0.546283 -0.088553 -3.180310 1.092294 -3.207999 11.909515 0.000000 0.000000 0.000000 2.061349 0.205072 -4.737271 -0.868179 0.461751 -5.088981 1.371564 -0.390100 3.802235 1.529958 -0.057197 -15.180346 0.000000 0.000000 0.000000 -17.108401 6.792834 -4.725619 -56.872963 -6.018425 -3.727096 -9.308679 -18.130768 2.234730 0.000000 0.000000 0.000000 13.447807 -5.006373 -4.007482 61.621774 6.283262 -2.632242 5.556993 17.697911 1.258486 0.000000 0.000000 0.000000 
0.000261 0.948001 0.002149 -2.949166 -2.418926 9.410924 5.485084 -0.353945 -4.227351 2.751720 0.302057 -10.042471 1.651277 7.190505 12.870990 0.000000 0.000000 0.000000 -2.778337 0.817721 -8.792148 -0.723738 -0.075719 -3.175658 0.690131 -3.620617 11.061973 0.000000 0.000000 0.000000 1.892893 0.165240 -4.065848 -0.495988 0.333905 -6.489583 0.947100 -0.735403 4.065003 1.277554 0.014846 -14.251009 0.000000 0.000000 0.000000 -16.457686 5.978268 -4.184007 -57.139303 -5.333226 -4.092973 -9.099564 -17.759079 2.156163 0.000000 0.000000 0.000000 14.570076 -4.266688 -3.870133 60.218760 5.868261 -2.786149 4.620423 17.422684 1.111766 0.000000 0.000000 0.000000 
0.000415 0.947569 0.003144 -3.368576 -3.058661 9.562871 5.808147 -0.340779 -4.098376 3.079125 0.331750 -10.561489 1.779913 7.459660 13.515351 0.000000 0.000000 0.000000 -2.596529 0.883596 -9.489495 -0.482387 -0.075653 -2.774326 0.850144 -3.480356 11.269499 0.000000 0.000000 0.000000 1.883779 0.165655 -4.042919 -0.771920 0.436581 -6.656455 2.227184 -1.432329 3.322028 0.853823 0.150570 -14.031386 0.000000 0.000000 0.000000 -16.424360 7.281962 -4.622575 -58.219063 -5.058035 -4.170482 -8.594289 -17.362561 2.065913 0.000000 0.000000 0.000000 13.418541 -3.865736 -3.708660 59.610494 5.821645 -2.763668 5.631137 16.936132 1.160218 0.000000 0.000000 0.000000 
0.000528 0.947418 0.003967 -3.215205 -2.732235 9.270202 5.427957 -0.323663 -3.623441 3.358463 0.345414 -10.843515 1.457078 7.061863 13.807434 0.000000 0.000000 0.000000 -2.618121 0.836452 -8.962876 -0.802637 -0.079505 -3.369041 0.653027 -3.856801 11.365053 0.000000 0.000000 0.000000 1.612986 0.170831 -4.097334 -0.480756 0.321070 -6.327943 2.322540 -1.728620 3.096050 0.525927 0.353285 -14.189708 0.000000 0.000000 0.000000 -16.515654 7.042421 -4.493351 -58.133939 -5.333236 -4.018197 -8.829602 -16.627334 2.005369 0.000000 0.000000 0.000000 13.066165 -3.762538 -3.615319 59.446684 6.182484 -2.570416 5.570706 15.646269 1.053979 0.000000 0.000000 0.000000 
0.000683 0.947486 0.004466 -3.205789 -3.082073 9.328848 5.368279 -0.317757 -3.551624 3.459991 0.355258 -10.985347 1.643207 7.318617 13.843901 0.000000 0.000000 0.000000 -2.700544 0.849979 -9.129692 -0.982886 -0.061160 -3.226075 0.818925 -3.587005 11.374545 0.000000 0.000000 0.000000 1.411383 0.174370 -4.122761 -0.456566 0.311674 -6.668805 2.885500 -1.858941 3.260138 0.682465 0.211227 -14.116169 0.000000 0.000000 0.000000 -16.429332 7.422205 -4.594390 -58.606050 -5.409400 -4.003685 -8.403624 -16.553400 1.949343 0.000000 0.000000 0.000000 12.349341 -3.046134 -3.216275 59.165680 6.607579 -2.395898 5.593501 15.076181 1.007119 0.000000 0.000000 0.000000 
0.000828 0.947494 0.004618 -3.174138 -3.118323 9.294692 5.329764 -0.318019 -3.566919 3.523089 0.342792 -10.821952 1.666339 7.399227 14.058431 0.000000 0.000000 0.000000 -2.616591 0.838162 -8.958292 -1.159295 -0.055334 -3.351395 0.801963 -3.581919 11.263871 0.000000 0.000000 0.000000 1.411373 0.182531 -4.261868 -0.396516 0.282192 -6.345952 2.989517 -1.865920 2.968991 0.850733 0.122306 -14.359500 0.000000 0.000000 0.000000 -16.377494 7.357598 -4.552244 -58.574458 -5.287086 -4.032125 -8.697292 -16.018953 1.920185 0.000000 0.000000 0.000000 11.922409 -2.829290 -3.050104 59.183833 6.799848 -2.286717 5.259876 14.403621 0.921487 0.000000 0.000000 0.000000 
0.001010 0.947627 0.004577 -3.287497 -3.581087 9.393089 5.327669 -0.314589 -3.576415 3.781909 0.331266 -10.700777 1.864026 7.610393 13.878445 0.000000 0.000000 0.000000 -2.574764 0.844223 -8.982032 -0.928745 -0.069796 -3.317491 0.857614 -3.417440 10.967291 0.000000 0.000000 0.000000 1.457167 0.200514 -4.541697 -0.420221 0.285818 -6.455882 3.376627 -1.509705 2.976817 0.915387 0.045703 -13.696957 0.000000 0.000000 0.000000 -16.421419 7.028234 -4.390154 -58.584002 -5.179736 -4.091619 -8.575932 -15.582853 1.844873 0.000000 0.000000 0.000000 11.488385 -2.388522 -2.770243 59.146958 6.856924 -2.268431 5.343451 13.919213 0.898584 0.000000 0.000000 0.000000 
0.001170 0.947884 0.004511 -3.369176 -3.690559 9.249607 5.392511 -0.300709 -3.340992 3.922786 0.334434 -10.773111 1.727236 7.387125 13.907662 0.000000 0.000000 0.000000 -2.506128 0.821735 -8.694032 -0.870625 -0.080894 -3.474741 0.977586 -3.208258 10.996830 0.000000 0.000000 0.000000 1.427248 0.196589 -4.452308 -0.334132 0.249368 -6.430839 3.586022 -1.365035 2.794720 0.918323 0.026388 -13.308477 0.000000 0.000000 0.000000 -16.419199 6.925298 -4.347871 -58.707567 -5.485008 -3.932780 -8.375376 -14.933089 1.732706 0.000000 0.000000 0.000000 11.637010 -1.911914 -2.581208 58.869463 6.965622 -2.173709 5.165014 13.444157 0.849005 0.000000 0.000000 0.000000 
0.001261 0.948165 0.004412 -3.378922 -4.014692 9.178848 5.309712 -0.283997 -3.053274 4.046740 0.341787 -10.887920 1.786950 7.413444 13.774615 0.000000 0.000000 0.000000 -2.655013 0.807488 -8.542418 -0.683249 -0.099040 -3.608450 1.232320 -2.763428 11.031998 0.000000 0.000000 0.000000 1.426855 0.210483 -4.659206 -0.338414 0.245070 -6.350359 3.784572 -1.071649 2.906904 0.717836 0.131188 -12.876759 0.000000 0.000000 0.000000 -16.412270 6.722377 -4.253768 -58.909734 -5.632892 -3.883970 -8.262338 -14.542063 1.667522 0.000000 0.000000 0.000000 11.571158 -1.479796 -2.363556 58.683066 7.025472 -2.142938 5.757243 13.512239 0.913972 0.000000 0.000000 0.000000 
0.001152 0.948154 0.004245 -3.402745 -4.188774 8.978450 5.473902 -0.264603 -2.719779 4.067584 0.344667 -10.930114 1.701036 7.235154 13.678276 0.000000 0.000000 0.000000 -2.738298 0.778206 -8.203649 -0.567867 -0.117924 -3.881679 1.377915 -2.657212 11.398237 0.000000 0.000000 0.000000 1.461167 0.214619 -4.704997 -0.404467 0.266475 -6.133286 3.912602 -0.977319 2.835478 0.476597 0.266877 -12.625788 0.000000 0.000000 0.000000 -16.409539 6.512647 -4.139632 -58.927168 -5.835429 -3.782679 -8.259004 -14.267814 1.633451 0.000000 0.000000 0.000000 11.625948 -1.085881 -2.202498 58.954314 7.089575 -2.116616 6.138270 13.530666 0.951457 0.000000 0.000000 0.000000 
0.000810 0.948058 0.003993 -3.390781 -4.377521 8.977492 5.765186 -0.255259 -2.544025 3.743342 0.361358 -11.083530 1.625021 7.043919 13.472279 0.000000 0.000000 0.000000 -2.924406 0.763353 -8.038550 -0.365468 -0.137568 -4.069123 1.559662 -2.401203 11.574238 0.000000 0.000000 0.000000 1.473866 0.230335 -4.954164 -0.494128 0.297910 -5.964281 4.023404 -0.805005 2.884751 0.264233 0.380364 -12.153993 0.000000 0.000000 0.000000 -16.252209 6.429188 -4.085763 -58.955866 -5.928262 -3.740998 -8.363855 -14.107066 1.625319 0.000000 0.000000 0.000000 11.732418 -0.921308 -2.137121 59.077162 6.947748 -2.194354 6.659488 14.159835 1.055372 0.000000 0.000000 0.000000 
0.000343 0.947914 0.003653 -3.452060 -4.591749 8.943280 5.829906 -0.253426 -2.576399 3.750322 0.349428 -10.923592 1.521231 6.805103 13.269965 0.000000 0.000000 0.000000 -2.926076 0.764978 -8.048484 -0.253255 -0.137519 -3.906820 1.551194 -2.474498 11.634412 0.000000 0.000000 0.000000 1.549161 0.235302 -5.012110 -0.504747 0.297126 -5.786044 4.156117 -0.548702 2.694776 0.126524 0.458293 -11.739102 0.000000 0.000000 0.000000 -16.519750 6.324435 -4.088785 -58.709876 -6.061048 -3.657592 -8.327104 -13.997908 1.603665 0.000000 0.000000 0.000000 11.942037 -0.976044 -2.182608 59.334919 6.811160 -2.247032 6.786222 14.936656 1.134325 0.000000 0.000000 0.000000 
